<svg fill="none" xmlns="http://www.w3.org/2000/svg" viewBox="0 0 105 76">
  <path d="M105 47.375C105 62.915 92.414 75.5 76.875 75.5H75a7.492 7.492 0 0 1-7.5-7.5c0-4.148 3.352-7.5 7.5-7.5h1.875C84.117 60.5 90 54.617 90 47.375V45.5H75c-8.273 0-15-6.727-15-15v-15c0-8.273 6.727-15 15-15h15c8.273 0 15 6.727 15 15v31.875Zm-60 0C45 62.915 32.414 75.5 16.875 75.5H15A7.492 7.492 0 0 1 7.5 68c0-4.148 3.352-7.5 7.5-7.5h1.875C24.117 60.5 30 54.617 30 47.375V45.5H15c-8.273 0-15-6.727-15-15v-15C0 7.227 6.727.5 15 .5h15c8.273 0 15 6.727 15 15v31.875Z" fill="#619B8A"/>
</svg>
