<?xml version="1.0" encoding="UTF-8" standalone="no"?>
<!DOCTYPE svg PUBLIC "-//W3C//DTD SVG 1.1//EN" "http://www.w3.org/Graphics/SVG/1.1/DTD/svg11.dtd">
<svg width="100%" height="100%" viewBox="0 0 1538 1538" version="1.1" xmlns="http://www.w3.org/2000/svg" xmlns:xlink="http://www.w3.org/1999/xlink" xml:space="preserve" xmlns:serif="http://www.serif.com/" style="fill-rule:evenodd;clip-rule:evenodd;stroke-linejoin:round;stroke-miterlimit:2;">
    <g transform="matrix(4.16667,0,0,4.16667,0,0)">
        <path d="M160.319,252.76C168.207,260.648 172.15,270.986 172.15,281.322C172.15,291.659 168.206,301.997 160.319,309.884C152.432,317.771 142.094,321.715 131.757,321.715C121.421,321.715 111.083,317.771 103.196,309.884C95.308,301.997 91.364,291.659 91.364,281.322C91.364,270.986 95.308,260.648 103.196,252.76C111.083,244.874 121.421,240.929 131.757,240.929C142.094,240.929 152.432,244.874 160.319,252.76ZM156.956,156.118C164.842,164.005 168.787,174.343 168.787,184.68C168.787,195.017 164.842,205.355 156.956,213.242C149.068,221.13 138.73,225.073 128.394,225.073C118.057,225.073 107.719,221.13 99.832,213.242C91.944,205.355 88.001,195.017 88.001,184.68C88.001,174.343 91.944,164.006 99.832,156.118C107.719,148.231 118.057,144.287 128.394,144.287C138.73,144.287 149.068,148.231 156.956,156.118ZM272.172,252.76C280.059,260.648 284.003,270.986 284.003,281.322C284.003,291.659 280.059,301.997 272.171,309.884C264.285,317.771 253.947,321.715 243.611,321.715C233.274,321.715 222.937,317.771 215.049,309.884C207.162,301.997 203.217,291.659 203.217,281.322C203.217,270.986 207.162,260.648 215.049,252.76C222.936,244.874 233.274,240.929 243.611,240.929C253.947,240.929 264.285,244.874 272.172,252.76ZM211.685,156.118C219.573,148.231 229.91,144.287 240.247,144.287C250.583,144.287 260.92,148.231 268.808,156.118C276.696,164.006 280.639,174.343 280.639,184.68C280.639,195.017 276.696,205.355 268.808,213.242C260.92,221.13 250.583,225.073 240.247,225.073C229.91,225.073 219.573,221.13 211.685,213.242C203.798,205.355 199.854,195.017 199.854,184.68C199.854,174.343 203.798,164.005 211.685,156.118ZM290.21,0.36L78.43,0.36C56.856,0.36 37.246,9.182 23.034,23.395C8.822,37.607 0,57.216 0,78.791L0,290.57C0,312.144 8.822,331.754 23.034,345.966C37.246,360.178 56.856,369 78.43,369L290.21,369C311.785,369 331.393,360.178 345.606,345.965C359.818,331.754 368.64,312.144 368.64,290.57L368.64,78.791C368.64,57.216 359.818,37.607 345.606,23.395C331.393,9.182 311.785,0.36 290.21,0.36ZM153.591,59.477C161.478,67.363 165.423,77.701 165.423,88.038C165.423,98.375 161.479,108.712 153.591,116.599C145.704,124.486 135.367,128.431 125.03,128.431C114.693,128.431 104.355,124.486 96.468,116.599C88.581,108.712 84.636,98.375 84.636,88.038C84.636,77.701 88.581,67.364 96.468,59.477C104.355,51.589 114.693,47.646 125.03,47.646C135.367,47.646 145.704,51.589 153.591,59.477ZM208.321,59.477C216.208,51.589 226.545,47.646 236.882,47.646C247.219,47.646 257.557,51.589 265.445,59.477C273.332,67.364 277.276,77.701 277.276,88.038C277.276,98.375 273.332,108.712 265.445,116.599C257.557,124.486 247.219,128.431 236.882,128.431C226.545,128.431 216.208,124.486 208.321,116.599C200.434,108.712 196.49,98.375 196.49,88.038C196.49,77.701 200.434,67.363 208.321,59.477Z" style="fill:rgb(97,155,138);"/>
    </g>
</svg>
